<?xml version="1.0" standalone="no"?>
<!DOCTYPE svg PUBLIC "-//W3C//DTD SVG 20010904//EN"
 "http://www.w3.org/TR/2001/REC-SVG-20010904/DTD/svg10.dtd">
<svg version="1.0" xmlns="http://www.w3.org/2000/svg"
 width="500.000000pt" height="500.000000pt" viewBox="0 0 500.000000 500.000000"
 preserveAspectRatio="xMidYMid meet">

<g transform="translate(0.000000,500.000000) scale(0.100000,-0.100000)"
fill="#000000" stroke="none">
<path d="M2520 4521 c0 -6 6 -13 12 -17 9 -6 5 -10 -12 -15 l-25 -7 26 -1 c27
-1 40 14 32 37 -5 14 -33 17 -33 3z"/>
<path d="M2513 4463 c9 -2 23 -2 30 0 6 3 -1 5 -18 5 -16 0 -22 -2 -12 -5z"/>
<path d="M2520 4435 c0 -8 7 -15 15 -15 8 0 15 4 15 9 0 5 -7 11 -15 15 -9 3
-15 0 -15 -9z"/>
<path d="M2520 4393 c0 -7 5 -13 10 -13 6 0 10 -5 10 -11 0 -6 -7 -9 -15 -6
-8 4 -17 2 -20 -3 -4 -6 5 -10 19 -10 21 0 25 5 24 28 -1 28 -28 43 -28 15z"/>
<path d="M2520 4310 c0 -29 13 -40 25 -20 3 6 0 10 -7 10 -9 0 -10 2 -2 8 9 5
8 11 -2 20 -12 11 -14 8 -14 -18z"/>
<path d="M2780 4265 c0 -16 5 -37 10 -45 7 -12 10 -8 10 15 0 17 -5 37 -10 45
-7 12 -10 8 -10 -15z"/>
<path d="M2531 4264 c-12 -14 -11 -16 4 -12 10 1 20 9 23 16 5 17 -10 15 -27
-4z"/>
<path d="M2754 4251 c3 -18 6 -37 6 -42 0 -5 4 -9 10 -9 12 0 2 61 -13 75 -6
7 -8 -1 -3 -24z"/>
<path d="M2887 4273 c-14 -13 -6 -33 12 -33 22 0 37 17 26 28 -4 4 -10 1 -12
-5 -3 -7 -9 -13 -15 -13 -6 0 -8 7 -4 15 6 16 3 19 -7 8z"/>
<path d="M2834 4255 c3 -8 2 -14 -2 -12 -4 1 -8 -1 -9 -5 -2 -5 -1 -8 2 -8 3
0 10 0 15 0 6 0 10 9 10 20 0 11 -5 20 -11 20 -6 0 -9 -7 -5 -15z"/>
<path d="M2602 4233 c2 -20 9 -28 23 -28 11 0 21 8 23 18 2 9 -2 17 -8 17 -6
0 -9 -4 -5 -9 3 -5 1 -12 -5 -16 -6 -4 -10 5 -10 19 0 14 -5 26 -11 26 -6 0
-9 -12 -7 -27z"/>
<path d="M2936 4244 c-4 -9 -4 -19 -1 -22 2 -3 7 3 11 12 3 9 10 14 15 11 4
-3 5 -13 2 -22 -4 -11 -3 -14 5 -9 17 10 15 33 -4 40 -21 8 -21 8 -28 -10z"/>
<path d="M2707 4243 c-14 -13 -6 -33 12 -33 19 0 35 23 24 34 -8 8 -28 8 -36
-1z"/>
<path d="M1890 4216 c0 -14 5 -26 10 -26 6 0 10 9 10 19 0 11 -4 23 -10 26 -6
4 -10 -5 -10 -19z"/>
<path d="M1922 4215 c0 -16 2 -22 5 -12 2 9 2 23 0 30 -3 6 -5 -1 -5 -18z"/>
<path d="M2480 4218 c-1 -23 -1 -23 -16 -3 l-16 20 4 -20 c2 -12 13 -21 26
-23 18 -3 22 1 22 22 0 14 -4 26 -10 26 -5 0 -10 -10 -10 -22z"/>
<path d="M2510 4220 c0 -25 20 -27 20 -2 1 15 2 15 15 -2 13 -17 15 -18 15 -3
0 22 17 22 23 0 4 -14 5 -12 6 5 1 19 -4 22 -39 22 -33 0 -40 -3 -40 -20z"/>
<path d="M2660 4225 c0 -8 5 -15 10 -15 6 0 10 7 10 15 0 8 -4 15 -10 15 -5 0
-10 -7 -10 -15z"/>
<path d="M2993 4220 c-1 -11 2 -18 8 -15 11 7 12 35 1 35 -4 0 -8 -9 -9 -20z"/>
<path d="M3021 4218 c-9 -23 1 -38 27 -38 17 0 15 28 -3 46 -13 14 -16 13 -24
-8z m29 -18 c0 -5 -4 -10 -10 -10 -5 0 -10 5 -10 10 0 6 5 10 10 10 6 0 10 -4
10 -10z"/>
<path d="M1947 4216 c-6 -15 1 -26 15 -26 5 0 6 6 2 13 -5 8 -2 8 9 -2 15 -12
17 -11 17 8 0 24 -34 30 -43 7z"/>
<path d="M2022 4213 c2 -10 13 -19 26 -21 17 -3 22 1 22 20 -1 21 -2 21 -11 5
-6 -9 -15 -15 -20 -12 -5 4 -7 11 -4 16 4 5 1 9 -5 9 -6 0 -10 -8 -8 -17z"/>
<path d="M2080 4211 c0 -25 6 -27 13 -6 4 8 2 17 -3 20 -6 4 -10 -3 -10 -14z"/>
<path d="M2110 4211 c0 -12 5 -21 10 -21 6 0 10 6 10 14 0 8 -4 18 -10 21 -5
3 -10 -3 -10 -14z"/>
<path d="M2180 4221 c0 -5 -3 -16 -6 -25 -5 -12 0 -16 20 -16 31 0 35 24 6 40
-12 6 -20 7 -20 1z m25 -21 c3 -5 1 -10 -4 -10 -6 0 -11 5 -11 10 0 6 2 10 4
10 3 0 8 -4 11 -10z"/>
<path d="M2325 4220 c-3 -5 -3 -16 1 -22 6 -10 5 -10 -7 -1 -22 18 -83 11 -87
-9 -2 -10 1 -18 7 -18 6 0 11 7 11 15 0 22 17 18 23 -5 3 -11 13 -20 24 -20
15 0 16 2 3 10 -12 8 -11 10 7 10 12 0 23 -8 26 -17 3 -10 5 1 6 25 1 42 -3
51 -14 32z"/>
<path d="M2351 4218 c1 -7 5 -24 9 -38 7 -22 8 -21 9 13 1 20 -3 37 -9 37 -5
0 -10 -6 -9 -12z"/>
<path d="M1810 4210 c-12 -7 -12 -11 -2 -20 6 -5 10 -7 7 -4 -3 4 0 13 6 21
13 15 10 16 -11 3z"/>
<path d="M1842 4203 c2 -9 9 -18 16 -21 8 -2 10 2 5 14 -4 12 -3 15 5 10 7 -4
12 -2 12 3 0 6 -9 11 -21 11 -14 0 -19 -5 -17 -17z"/>
<path d="M2147 4200 c3 -11 7 -20 9 -20 2 0 4 9 4 20 0 11 -4 20 -9 20 -5 0
-7 -9 -4 -20z"/>
<path d="M2389 4218 c-10 -34 -7 -48 9 -48 25 0 31 7 25 31 -4 15 -30 28 -34
17z"/>
<path d="M1740 4202 c0 -5 6 -17 14 -28 14 -18 15 -18 13 3 -1 20 -27 43 -27
25z"/>
<path d="M3073 4194 c-3 -8 -3 -18 1 -21 3 -4 6 -1 6 5 0 7 6 12 14 12 8 0 13
-7 12 -16 0 -9 5 -19 12 -21 7 -3 10 1 6 11 -7 17 11 22 19 6 3 -6 5 -6 3 1
-1 6 -16 17 -34 25 -29 12 -34 11 -39 -2z"/>
<path d="M1781 4184 c0 -11 3 -14 6 -6 3 7 2 16 -1 19 -3 4 -6 -2 -5 -13z"/>
<path d="M2961 4186 c-9 -11 -9 -16 1 -22 7 -4 10 -4 6 1 -4 4 -3 14 3 22 6 7
9 13 6 13 -2 0 -10 -6 -16 -14z"/>
<path d="M3164 4174 c-4 -10 -9 -22 -11 -26 -2 -5 0 -8 5 -8 10 0 24 41 17 48
-3 3 -8 -4 -11 -14z"/>
<path d="M1688 4169 c-10 -5 -18 -18 -19 -27 0 -10 -3 -12 -6 -4 -2 6 -9 12
-14 12 -4 0 -6 -7 -3 -15 7 -18 -7 -20 -25 -2 -10 10 -11 9 -6 -5 4 -10 15
-18 24 -18 23 1 49 23 44 38 -3 6 0 12 5 12 6 0 13 -6 15 -12 3 -7 6 -3 6 10
1 25 2 25 -21 11z"/>
<path d="M1726 4165 c4 -8 8 -15 10 -15 2 0 4 7 4 15 0 8 -4 15 -10 15 -5 0
-7 -7 -4 -15z"/>
<path d="M3190 4171 c0 -5 -3 -17 -7 -27 -4 -11 -3 -15 4 -11 14 9 24 47 12
47 -5 0 -9 -4 -9 -9z"/>
<path d="M2983 4154 c0 -7 5 -10 10 -7 6 4 8 0 4 -10 -4 -12 -1 -17 11 -17 15
0 15 -2 2 -10 -9 -6 -10 -10 -3 -10 19 0 25 18 11 39 -16 25 -35 34 -35 15z"/>
<path d="M3210 4140 c0 -13 7 -20 20 -20 13 0 20 7 20 20 0 13 -7 20 -20 20
-13 0 -20 -7 -20 -20z"/>
<path d="M3285 4138 c-4 -9 -4 -22 0 -28 11 -17 42 -11 48 10 7 28 -9 35 -18
7 l-7 -22 -8 25 c-6 21 -8 22 -15 8z"/>
<path d="M3347 4121 c-3 -12 -1 -21 4 -21 5 0 9 5 9 10 0 6 5 10 10 10 6 0 10
-8 10 -17 0 -15 2 -14 15 3 14 18 14 18 15 -5 0 -19 3 -22 11 -14 16 16 4 42
-18 41 -10 0 -25 2 -34 6 -11 5 -18 1 -22 -13z"/>
<path d="M3440 4099 c0 -26 3 -30 22 -27 23 3 39 38 19 38 -6 0 -11 -7 -11
-15 0 -8 -5 -15 -10 -15 -6 0 -8 11 -4 25 4 15 2 25 -5 25 -6 0 -11 -14 -11
-31z"/>
<path d="M1569 4103 c-1 -5 -1 -17 0 -28 2 -18 0 -18 -18 5 -11 14 -21 20 -21
14 0 -6 8 -18 18 -27 16 -15 20 -15 40 -2 12 9 19 22 16 30 -6 15 -33 21 -35
8z"/>
<path d="M3029 4094 c-11 -14 -11 -18 4 -29 9 -6 14 -15 10 -19 -4 -4 1 -4 11
0 15 6 17 3 11 -15 -4 -15 -3 -21 7 -19 7 2 12 -3 10 -11 -2 -9 3 -11 15 -7
16 5 15 4 -1 -9 -11 -8 -14 -15 -7 -15 7 0 10 -4 6 -9 -9 -15 16 -24 28 -11 9
9 9 14 1 17 -7 2 -10 13 -7 23 4 14 0 20 -11 20 -8 0 -18 11 -22 25 -3 14 -12
25 -19 25 -7 0 -11 10 -10 25 4 29 -7 32 -26 9z m21 -14 c0 -5 -4 -10 -10 -10
-5 0 -10 5 -10 10 0 6 5 10 10 10 6 0 10 -4 10 -10z"/>
<path d="M3496 4084 c-8 -21 -8 -24 4 -24 6 0 10 6 10 14 0 8 6 17 13 19 7 4
6 6 -4 6 -9 1 -20 -6 -23 -15z"/>
<path d="M3600 4086 c0 -8 -3 -22 -7 -32 -4 -11 -3 -15 4 -11 13 8 23 57 12
57 -5 0 -9 -6 -9 -14z"/>
<path d="M3627 4080 c-11 -41 -9 -45 28 -47 29 -3 35 1 35 16 0 25 -26 34 -36
13 -6 -13 -8 -11 -13 13 l-7 30 -7 -25z"/>
<path d="M1450 4085 c0 -5 5 -17 10 -25 5 -8 10 -10 10 -5 0 6 -5 17 -10 25
-5 8 -10 11 -10 5z"/>
<path d="M1480 4070 c0 -17 3 -19 19 -10 16 8 23 6 35 -12 9 -12 16 -17 16
-11 0 12 -47 53 -61 53 -5 0 -9 -9 -9 -20z"/>
<path d="M3537 4076 c-3 -8 1 -20 9 -27 13 -10 17 -10 25 2 5 8 9 20 9 27 0
17 -37 15 -43 -2z"/>
<path d="M1430 4068 c0 -9 5 -20 10 -23 13 -8 13 5 0 25 -8 13 -10 13 -10 -2z"/>
<path d="M1395 4050 c-8 -13 3 -30 18 -29 9 0 9 2 0 6 -7 2 -13 9 -13 14 0 6
5 7 10 4 6 -3 10 -1 10 4 0 14 -17 14 -25 1z"/>
<path d="M3714 4045 c-8 -19 5 -38 22 -31 8 3 14 0 14 -6 0 -7 5 -6 15 2 12
10 15 9 16 -6 0 -11 3 -14 6 -6 8 21 25 13 19 -10 -3 -13 -3 -17 0 -10 5 10 9
9 19 -4 7 -10 25 -17 44 -16 27 1 30 -2 20 -14 -12 -14 -7 -18 23 -15 13 2 16
-2 11 -16 -6 -16 -5 -17 12 -3 17 14 18 13 13 -2 -4 -10 1 -23 13 -34 17 -16
22 -16 29 -4 13 20 12 27 -2 36 -7 4 -8 3 -4 -4 5 -8 0 -12 -14 -12 -18 0 -19
3 -9 21 8 15 8 19 0 15 -6 -4 -11 0 -11 11 0 13 -3 14 -8 5 -7 -9 -15 -6 -36
13 -15 14 -31 23 -36 20 -5 -3 -12 4 -15 16 -5 14 -10 18 -17 11 -7 -7 -17 -3
-30 10 -11 11 -28 18 -38 15 -11 -3 -21 0 -24 7 -3 7 -5 7 -5 -2 -1 -7 -5 -11
-11 -7 -5 3 -7 12 -3 20 3 8 2 15 -1 15 -4 0 -9 -7 -12 -15z m136 -65 c0 -5
-5 -10 -11 -10 -5 0 -7 5 -4 10 3 6 8 10 11 10 2 0 4 -4 4 -10z"/>
<path d="M1364 4036 c-3 -8 -15 -11 -30 -8 -25 5 -30 -3 -14 -28 12 -20 56 4
56 31 0 22 -5 24 -12 5z m-14 -26 c0 -5 -4 -10 -10 -10 -5 0 -10 5 -10 10 0 6
5 10 10 10 6 0 10 -4 10 -10z"/>
<path d="M1490 4024 c0 -7 5 -16 10 -19 14 -9 30 3 24 19 -6 16 -34 17 -34 0z"/>
<path d="M2232 4024 c-22 -9 -30 -18 -26 -28 3 -9 11 -13 16 -10 6 4 6 9 -2
14 -8 5 -7 9 5 14 9 3 20 4 25 1 4 -3 18 -1 31 3 22 8 22 9 2 14 -11 3 -34 -1
-51 -8z"/>
<path d="M1466 4012 c-4 -7 -5 -16 -2 -21 4 -5 -8 -12 -24 -16 -25 -6 -29 -9
-19 -21 8 -10 8 -14 0 -14 -16 0 -51 -32 -51 -47 0 -7 -5 -13 -11 -13 -8 0 -7
-6 2 -17 13 -15 11 -16 -10 -10 -22 5 -23 5 -8 -10 13 -14 19 -14 32 -3 12 10
13 16 3 28 -11 13 -10 15 6 9 15 -6 17 -5 8 6 -14 16 -6 28 14 20 10 -4 12 0
8 11 -5 12 -2 15 12 9 12 -4 15 -3 10 5 -5 8 0 12 13 12 15 0 21 6 21 21 0 11
5 17 10 14 11 -7 12 2 1 29 -5 14 -10 16 -15 8z m-6 -52 c0 -5 -4 -10 -10 -10
-5 0 -10 5 -10 10 0 6 5 10 10 10 6 0 10 -4 10 -10z"/>
<path d="M1263 3998 c-26 -12 -27 -16 -13 -38 8 -12 10 -10 10 9 0 20 2 22 15
11 13 -11 14 -10 9 4 -7 17 11 23 19 6 3 -6 4 -5 3 2 -3 16 -17 18 -43 6z"/>
<path d="M1226 3966 c3 -9 2 -16 -4 -16 -6 0 -13 6 -15 13 -3 6 -6 8 -6 2 -1
-18 17 -38 28 -31 14 9 14 33 1 41 -6 3 -7 -1 -4 -9z"/>
<path d="M1155 3940 c-3 -5 -1 -10 6 -10 10 0 10 -2 0 -12 -10 -11 -15 -10
-24 3 -9 13 -15 14 -23 4 -8 -8 -8 -16 1 -28 11 -16 15 -16 44 -1 34 17 38 26
17 43 -10 8 -16 9 -21 1z m-15 -41 c0 -6 -4 -7 -10 -4 -5 3 -10 11 -10 16 0 6
5 7 10 4 6 -3 10 -11 10 -16z"/>
<path d="M3550 3940 c0 -6 7 -10 15 -10 8 0 15 2 15 4 0 2 -7 6 -15 10 -8 3
-15 1 -15 -4z"/>
<path d="M2197 3920 c-8 -11 -18 -17 -23 -12 -4 4 -3 0 4 -10 10 -12 10 -18 1
-24 -8 -4 -9 -3 -5 4 4 7 2 12 -3 12 -13 0 -14 -27 -2 -35 5 -3 12 -1 16 5 4
6 11 7 17 4 6 -4 6 2 -1 15 -10 17 -9 21 3 21 9 0 14 8 13 20 -2 25 -3 25 -20
0z"/>
<path d="M3122 3903 c2 -10 11 -17 21 -17 19 2 23 -11 7 -19 -6 -3 -5 -4 2 -3
21 4 21 27 -1 33 -11 3 -18 9 -15 14 3 5 0 9 -6 9 -6 0 -10 -8 -8 -17z"/>
<path d="M2240 3902 c0 -5 7 -13 16 -16 10 -4 14 -1 12 6 -5 15 -28 23 -28 10z"/>
<path d="M1078 3888 c-12 -31 21 -53 38 -26 5 8 2 9 -11 4 -14 -5 -16 -4 -7 7
7 8 9 17 5 20 -10 11 -20 8 -25 -5z"/>
<path d="M2242 3850 c0 -19 2 -27 5 -17 2 9 2 25 0 35 -3 9 -5 1 -5 -18z"/>
<path d="M1048 3860 c-2 -7 -16 -12 -32 -12 -20 0 -24 -4 -17 -11 16 -16 13
-27 -4 -21 -23 9 -47 -15 -39 -40 6 -19 5 -19 -10 -7 -14 12 -16 12 -10 -3 3
-9 1 -16 -5 -16 -6 0 -11 5 -11 12 0 6 -3 8 -6 5 -4 -4 -1 -13 6 -22 12 -14
15 -14 32 1 12 12 16 24 12 38 -6 19 -5 19 10 7 14 -12 16 -12 10 2 -4 12 0
16 18 15 40 -2 48 1 48 18 0 8 5 12 10 9 12 -8 13 5 1 24 -7 10 -10 10 -13 1z
m-8 -30 c0 -5 -4 -10 -10 -10 -5 0 -10 5 -10 10 0 6 5 10 10 10 6 0 10 -4 10
-10z"/>
<path d="M4017 3863 c-13 -12 -7 -28 14 -42 18 -11 23 -11 30 0 4 8 11 10 15
6 4 -3 1 -15 -7 -24 -13 -16 -12 -17 4 -4 20 16 35 8 19 -12 -8 -10 -6 -16 11
-27 12 -8 28 -13 36 -11 7 1 10 -2 6 -9 -4 -7 1 -6 14 2 17 10 18 14 6 16 -8
2 -18 14 -21 28 l-6 24 -20 -23 c-18 -21 -19 -21 -13 -1 8 29 -28 62 -50 44
-17 -14 -21 -1 -5 18 7 9 7 9 -2 2 -18 -15 -28 -12 -22 5 6 16 2 20 -9 8z
m123 -93 c0 -5 -4 -10 -10 -10 -5 0 -10 5 -10 10 0 6 5 10 10 10 6 0 10 -4 10
-10z"/>
<path d="M2282 3826 c6 -20 15 -36 20 -36 10 0 11 14 1 24 -4 4 -8 15 -8 23 0
9 -5 18 -12 20 -9 3 -9 -5 -1 -31z"/>
<path d="M3630 3851 c0 -20 13 -41 25 -41 10 0 11 5 2 25 -12 25 -27 34 -27
16z"/>
<path d="M3150 3829 c0 -4 9 -11 21 -14 16 -5 18 -9 8 -21 -10 -12 -9 -13 7
-7 17 6 17 5 5 -10 -12 -16 -12 -17 5 -10 16 6 17 4 7 -8 -10 -12 -9 -21 1
-41 8 -15 12 -28 11 -30 -2 -2 5 -4 15 -4 11 0 20 2 20 4 0 9 -28 30 -34 25
-3 -4 -6 -3 -6 2 0 4 8 14 18 21 9 7 12 14 5 14 -6 0 -17 16 -23 35 -7 21 -18
35 -28 35 -15 0 -15 2 -2 10 12 7 10 9 -8 7 -12 0 -22 -4 -22 -8z"/>
<path d="M1304 3803 c1 -14 -5 -17 -24 -15 l-25 3 23 -17 c23 -16 25 -15 44 4
21 20 17 42 -6 42 -8 0 -13 -8 -12 -17z"/>
<path d="M2135 3811 c-3 -5 -1 -12 5 -16 5 -3 10 1 10 9 0 18 -6 21 -15 7z"/>
<path d="M3694 3803 c10 -12 16 -29 13 -38 -4 -8 -2 -15 3 -15 18 0 10 37 -12
56 l-23 19 19 -22z"/>
<path d="M2185 3800 c-3 -5 -1 -10 4 -10 6 0 11 5 11 10 0 6 -2 10 -4 10 -3 0
-8 -4 -11 -10z"/>
<path d="M2230 3779 c0 -5 5 -7 10 -4 6 3 10 8 10 11 0 2 -4 4 -10 4 -5 0 -10
-5 -10 -11z"/>
<path d="M2125 3769 c-4 -6 -5 -12 -2 -15 2 -3 7 2 10 11 7 17 1 20 -8 4z"/>
<path d="M2166 3765 c-3 -9 0 -15 9 -15 8 0 15 7 15 15 0 8 -4 15 -9 15 -5 0
-11 -7 -15 -15z"/>
<path d="M2290 3770 c0 -5 5 -10 10 -10 6 0 10 5 10 10 0 6 -4 10 -10 10 -5 0
-10 -4 -10 -10z"/>
<path d="M1253 3750 c3 -12 -1 -23 -10 -29 -10 -5 -14 -15 -9 -26 5 -14 9 -15
22 -5 8 7 13 19 10 26 -3 7 5 16 16 20 21 6 21 7 3 20 -27 20 -38 17 -32 -6z"/>
<path d="M2240 3735 c9 -23 7 -25 -18 -25 -19 0 -23 -3 -13 -9 11 -7 11 -9 0
-14 -8 -3 -3 -6 11 -7 14 -1 20 -4 13 -6 -7 -3 -10 -11 -7 -19 4 -10 0 -12
-15 -8 -17 4 -21 1 -20 -18 0 -22 1 -23 9 -4 5 11 9 17 11 13 4 -18 7 -28 8
-35 0 -4 7 -1 14 5 6 7 12 30 13 50 0 21 3 42 6 47 6 10 -8 55 -16 55 -3 0 -1
-11 4 -25z"/>
<path d="M876 3724 c10 -8 13 -13 7 -9 -7 3 -13 1 -13 -6 0 -7 -8 -5 -21 7
-22 19 -22 19 -10 -3 13 -25 31 -39 31 -25 0 5 10 12 22 15 18 5 19 8 8 21 -7
9 -20 16 -28 16 -13 0 -12 -3 4 -16z"/>
<path d="M2150 3713 c0 -26 1 -26 15 -7 19 25 19 34 0 34 -10 0 -15 -10 -15
-27z"/>
<path d="M3775 3730 c3 -5 8 -10 11 -10 2 0 4 5 4 10 0 6 -5 10 -11 10 -5 0
-7 -4 -4 -10z"/>
<path d="M4173 3724 c-3 -8 0 -21 6 -27 9 -9 11 -8 6 4 -4 10 -1 20 6 25 7 4
10 3 5 -4 -3 -6 -2 -13 4 -17 6 -4 8 -9 6 -13 -2 -4 2 -13 10 -20 8 -7 14 -9
15 -5 0 4 5 -3 10 -16 9 -23 11 -24 26 -8 14 14 15 19 4 29 -11 10 -12 10 -7
1 4 -7 3 -13 -3 -13 -15 0 -23 18 -11 25 5 3 10 11 10 17 0 6 -9 3 -20 -7 -22
-20 -28 -8 -7 15 10 12 9 12 -4 2 -14 -10 -17 -9 -22 8 -6 24 -25 26 -34 4z"/>
<path d="M815 3708 c4 -9 0 -18 -9 -21 -17 -7 -22 -37 -6 -37 20 0 25 5 21 25
-2 16 -1 17 13 6 24 -20 19 3 -4 24 -16 15 -20 15 -15 3z"/>
<path d="M3795 3700 c3 -5 8 -10 11 -10 2 0 4 5 4 10 0 6 -5 10 -11 10 -5 0
-7 -4 -4 -10z"/>
<path d="M3820 3681 c0 -5 7 -12 16 -15 14 -5 15 -4 4 9 -14 17 -20 19 -20 6z"/>
<path d="M3750 3676 c0 -2 8 -10 18 -17 15 -13 16 -12 3 4 -13 16 -21 21 -21
13z"/>
<path d="M3226 3661 c-6 -9 44 -35 52 -26 3 3 0 5 -6 5 -7 0 -12 7 -12 15 0
16 -25 21 -34 6z"/>
<path d="M770 3644 c0 -8 -4 -13 -9 -10 -15 10 -40 -5 -34 -20 3 -8 -1 -14 -8
-14 -8 0 -23 -7 -34 -15 -18 -14 -18 -16 -3 -32 16 -15 17 -15 11 8 -6 22 -5
23 10 10 15 -12 17 -12 11 4 -5 13 -4 16 4 11 16 -10 52 11 52 30 0 8 4 13 9
10 5 -4 7 3 4 14 -6 24 -13 26 -13 4z m-10 -30 c0 -8 -5 -12 -10 -9 -6 4 -8
11 -5 16 9 14 15 11 15 -7z"/>
<path d="M1182 3653 c-9 -4 -10 -8 -2 -18 9 -11 6 -13 -12 -9 -13 2 -17 2 -11
-2 9 -4 7 -13 -9 -34 -11 -16 -20 -40 -20 -55 0 -19 -4 -25 -16 -20 -12 4 -13
3 -2 -10 15 -18 26 -12 45 24 10 21 11 31 2 40 -8 8 -7 11 7 11 9 0 14 5 11
10 -3 6 -1 10 6 10 16 0 50 40 43 51 -6 10 -21 10 -42 2z m38 -7 c0 -3 -4 -8
-10 -11 -5 -3 -10 -1 -10 4 0 6 5 11 10 11 6 0 10 -2 10 -4z"/>
<path d="M4290 3625 c-18 -21 15 -58 43 -49 15 5 19 3 14 -9 -4 -11 -2 -14 9
-10 10 4 12 0 8 -10 -9 -24 38 -67 65 -60 12 3 21 10 21 15 0 6 -7 8 -15 4
-14 -5 -21 18 -16 48 1 5 -5 3 -14 -4 -12 -10 -13 -15 -3 -21 7 -4 9 -11 6
-14 -11 -11 -35 18 -30 37 6 24 -25 55 -41 39 -20 -20 -31 -12 -12 9 20 22 7
28 -14 8 -11 -11 -12 -9 -6 10 7 26 3 28 -15 7z"/>
<path d="M2103 3615 c-6 -6 -8 -17 -4 -24 6 -9 10 -9 19 1 15 18 1 40 -15 23z"/>
<path d="M2137 3609 c3 -10 11 -19 19 -19 16 0 8 26 -11 33 -9 4 -11 -1 -8
-14z"/>
<path d="M3808 3623 c6 -2 10 -8 7 -13 -2 -4 4 -15 15 -25 11 -10 20 -23 20
-30 0 -7 10 -20 23 -31 22 -19 22 -19 6 1 -9 11 -20 30 -23 43 -4 12 -12 22
-18 22 -6 0 -8 3 -5 7 9 8 -12 33 -27 32 -7 0 -6 -2 2 -6z"/>
<path d="M3254 3612 c-6 -4 -8 -17 -5 -29 5 -17 10 -20 21 -13 13 9 13 11 0
20 -13 9 -13 11 0 20 8 5 11 10 5 10 -5 0 -15 -4 -21 -8z"/>
<path d="M2185 3590 c3 -5 11 -10 16 -10 6 0 7 5 4 10 -3 6 -11 10 -16 10 -6
0 -7 -4 -4 -10z"/>
<path d="M2020 3570 c0 -5 5 -10 10 -10 6 0 10 5 10 10 0 6 -4 10 -10 10 -5 0
-10 -4 -10 -10z"/>
<path d="M2103 3570 c-13 -5 -23 -15 -23 -22 0 -10 2 -10 9 0 4 8 12 14 17 14
5 0 16 4 24 9 19 11 2 10 -27 -1z"/>
<path d="M3900 3555 c13 -14 20 -25 16 -25 -5 0 -3 -6 3 -13 6 -8 8 -16 5 -19
-2 -3 2 -8 10 -11 25 -10 15 33 -16 65 -15 15 -31 28 -34 28 -4 0 3 -11 16
-25z"/>
<path d="M661 3546 c13 -18 12 -19 -10 -13 -23 6 -23 5 -8 -11 13 -13 19 -14
29 -4 10 10 8 16 -7 30 -18 16 -18 16 -4 -2z"/>
<path d="M1935 3539 c-4 -5 0 -12 8 -15 9 -3 13 -13 10 -24 -3 -10 0 -27 6
-37 9 -15 10 -10 7 22 -2 22 0 45 5 50 5 7 1 11 -11 12 -11 1 -22 -3 -25 -8z"/>
<path d="M3272 3541 c-11 -7 -11 -11 2 -23 8 -9 12 -18 9 -22 -4 -3 -1 -6 6
-6 7 0 9 -4 6 -10 -3 -5 -1 -10 6 -10 7 0 8 -4 2 -12 -5 -7 -8 -19 -7 -25 1
-7 2 -17 3 -23 2 -18 29 -10 34 10 3 12 0 20 -8 20 -8 0 -11 9 -8 24 3 16 -3
32 -17 46 -18 18 -20 24 -9 31 8 5 10 9 4 9 -5 0 -16 -4 -23 -9z"/>
<path d="M2028 3533 c-10 -2 -18 -9 -18 -14 0 -6 -6 -7 -12 -3 -10 5 -10 3 0
-7 11 -11 14 -12 21 -1 5 8 12 13 17 12 5 -1 10 3 12 9 2 6 2 10 0 10 -1 -1
-11 -3 -20 -6z"/>
<path d="M2187 3523 c7 -18 33 -17 33 1 0 8 -8 14 -19 13 -11 0 -17 -6 -14
-14z"/>
<path d="M590 3503 c0 -5 5 -15 10 -23 7 -11 12 -12 21 -3 6 6 8 16 5 22 -8
12 -36 15 -36 4z"/>
<path d="M2180 3491 c0 -19 20 -22 36 -7 14 15 13 16 -10 16 -14 0 -26 -4 -26
-9z"/>
<path d="M574 3478 c4 -13 -2 -20 -19 -24 -16 -4 -25 -13 -25 -25 0 -20 24
-26 35 -9 4 6 -1 7 -12 3 -16 -6 -16 -5 -4 10 7 9 17 15 21 12 13 -8 19 21 8
36 -8 11 -9 10 -4 -3z"/>
<path d="M1067 3476 c-4 -9 2 -17 13 -21 28 -9 44 3 29 21 -15 18 -35 18 -42
0z"/>
<path d="M545 3470 c3 -5 8 -10 11 -10 2 0 4 5 4 10 0 6 -5 10 -11 10 -5 0 -7
-4 -4 -10z"/>
<path d="M850 3462 c-25 -31 -41 -62 -31 -62 9 0 61 64 61 74 0 12 -16 5 -30
-12z"/>
<path d="M4440 3458 c0 -21 0 -21 16 -2 8 10 13 15 11 9 -2 -5 -2 -18 2 -28 6
-17 8 -17 26 3 16 18 16 20 2 14 -12 -4 -17 -1 -17 10 0 9 -8 16 -20 16 -14 0
-20 -7 -20 -22z"/>
<path d="M2163 3450 c-2 -20 11 -21 64 -5 6 2 13 -1 15 -6 2 -7 12 -7 28 0
l25 10 -30 2 c-16 1 -42 1 -57 1 -16 0 -28 4 -28 9 0 18 -16 8 -17 -11z"/>
<path d="M3887 3451 c-4 -15 2 -22 24 -30 16 -5 29 -15 29 -21 0 -6 4 -9 9 -6
4 3 13 -6 20 -20 7 -15 17 -24 25 -21 7 3 20 0 27 -6 12 -10 12 -10 1 3 -7 8
-18 15 -25 15 -7 0 -12 5 -12 11 0 6 -8 18 -17 28 -10 10 -18 14 -18 10 0 -4
-9 1 -20 11 -11 10 -20 24 -20 32 0 20 -17 16 -23 -6z"/>
<path d="M763 3447 c-13 -22 -54 -46 -69 -40 -10 3 -12 0 -8 -10 5 -15 44 -12
44 3 0 4 7 11 16 14 14 5 15 4 4 -9 -11 -13 -10 -14 3 -10 8 4 17 20 19 36 5
32 3 36 -9 16z"/>
<path d="M1060 3436 c0 -17 14 -29 23 -20 8 8 -3 34 -14 34 -5 0 -9 -6 -9 -14z"/>
<path d="M4505 3430 c-17 -18 -17 -21 -1 -45 14 -21 20 -24 32 -14 17 14 18
35 2 45 -7 5 -9 2 -5 -8 4 -12 1 -14 -14 -11 -19 5 -19 7 -3 24 10 11 15 21
12 24 -3 3 -13 -4 -23 -15z"/>
<path d="M504 3405 c4 -11 -1 -15 -19 -15 -28 0 -32 -12 -10 -30 19 -16 31 -6
40 33 5 18 3 27 -5 27 -7 0 -10 -7 -6 -15z"/>
<path d="M1023 3383 c-22 -23 -22 -23 -2 -34 12 -6 24 -7 27 -3 4 4 1 9 -5 11
-7 3 -13 9 -13 14 0 6 4 8 8 5 4 -2 14 -1 20 3 10 6 10 10 0 17 -9 7 -20 3
-35 -13z"/>
<path d="M3318 3383 c7 -3 16 -2 19 1 4 3 -2 6 -13 5 -11 0 -14 -3 -6 -6z"/>
<path d="M790 3362 c0 -10 -5 -23 -12 -30 -7 -7 -8 -12 -2 -12 16 0 34 22 34
42 0 10 -4 18 -10 18 -5 0 -10 -8 -10 -18z"/>
<path d="M4560 3355 c-18 -21 14 -58 43 -49 15 5 19 3 14 -9 -4 -12 -2 -14 10
-10 13 5 15 2 9 -13 -6 -15 -5 -16 5 -7 19 19 -17 55 -45 47 -17 -5 -19 -4 -8
7 16 17 16 37 0 21 -17 -17 -33 -15 -18 3 7 9 11 18 8 20 -3 3 -11 -1 -18 -10z"/>
<path d="M426 3340 c-16 -17 -17 -22 -5 -37 11 -15 11 -16 -1 -5 -21 18 -35
15 -19 -5 12 -15 12 -16 -3 -10 -19 7 -25 -7 -8 -18 16 -10 51 30 44 49 -5 12
-2 15 10 10 13 -5 15 -2 9 12 -6 17 -5 18 13 4 18 -14 18 -14 5 3 -17 21 -21
21 -45 -3z"/>
<path d="M731 3325 c-29 -32 -31 -35 -12 -35 12 0 21 5 21 11 0 5 5 7 12 3 7
-5 8 -3 4 5 -5 7 0 21 10 32 31 34 -1 20 -35 -16z"/>
<path d="M3314 3348 c-5 -7 -3 -8 6 -3 7 4 16 2 21 -6 5 -9 3 -16 -9 -21 -15
-6 -14 -7 3 -7 17 -1 17 -3 5 -11 -13 -9 -13 -10 0 -10 8 0 21 4 28 9 11 7 11
11 -2 24 -9 8 -16 20 -16 26 0 15 -27 14 -36 -1z"/>
<path d="M1810 3321 c0 -33 36 -50 59 -27 17 17 6 36 -20 36 -10 0 -19 5 -19
10 0 6 -4 10 -10 10 -5 0 -10 -13 -10 -29z m50 -11 c0 -5 -7 -10 -15 -10 -8 0
-15 5 -15 10 0 6 7 10 15 10 8 0 15 -4 15 -10z"/>
<path d="M2580 3315 c0 -19 5 -35 10 -35 6 0 10 16 10 35 0 19 -4 35 -10 35
-5 0 -10 -16 -10 -35z"/>
<path d="M2620 3320 c0 -16 5 -30 10 -30 6 0 10 14 10 30 0 17 -4 30 -10 30
-5 0 -10 -13 -10 -30z"/>
<path d="M990 3325 c-7 -8 -10 -22 -6 -30 3 -8 1 -15 -4 -15 -5 0 -7 -7 -4
-15 4 -9 -2 -18 -17 -24 -24 -10 -24 -10 -2 -10 13 -1 27 8 33 19 6 11 7 20 3
20 -4 0 -1 5 7 10 10 6 11 10 3 10 -7 0 -13 5 -13 11 0 6 7 8 16 5 15 -6 15
-4 3 11 -12 15 -12 16 4 10 9 -3 17 -2 17 3 0 15 -26 12 -40 -5z"/>
<path d="M2027 3333 c-11 -10 -8 -53 3 -53 6 0 10 6 10 14 0 8 3 21 6 30 6 16
-7 22 -19 9z"/>
<path d="M2060 3305 c0 -19 5 -35 10 -35 6 0 10 16 10 35 0 19 -4 35 -10 35
-5 0 -10 -16 -10 -35z"/>
<path d="M2380 3328 c1 -41 13 -59 39 -56 34 4 37 41 4 46 -13 2 -23 8 -23 13
0 5 -4 9 -10 9 -5 0 -10 -6 -10 -12z m50 -33 c0 -8 -4 -15 -9 -15 -13 0 -22
16 -14 24 11 11 23 6 23 -9z"/>
<path d="M2660 3332 c0 -6 -3 -17 -6 -26 -5 -13 1 -16 26 -16 27 0 31 3 28 23
-3 22 -48 40 -48 19z"/>
<path d="M2750 3315 c0 -22 4 -25 35 -25 28 0 35 4 35 19 0 11 -4 23 -10 26
-5 3 -10 -3 -10 -14 0 -12 -7 -21 -15 -21 -8 0 -15 9 -15 20 0 11 -4 20 -10
20 -5 0 -10 -11 -10 -25z"/>
<path d="M2960 3321 c0 -11 -3 -26 -6 -35 -5 -13 1 -16 29 -16 20 0 37 6 40
14 6 16 -11 36 -30 36 -7 0 -13 5 -13 10 0 6 -4 10 -10 10 -5 0 -10 -9 -10
-19z m42 -26 c0 -5 -5 -11 -11 -13 -6 -2 -11 4 -11 13 0 9 5 15 11 13 6 -2 11
-8 11 -13z"/>
<path d="M1420 3298 c0 -21 5 -38 10 -38 13 0 13 40 0 60 -7 11 -10 5 -10 -22z"/>
<path d="M1461 3303 c-1 -17 4 -35 9 -38 12 -7 12 22 0 50 -7 17 -9 15 -9 -12z"/>
<path d="M1607 3323 c-11 -18 16 -43 41 -37 23 7 30 28 12 39 -5 3 -10 -1 -10
-9 0 -25 -20 -29 -28 -5 -5 12 -12 18 -15 12z"/>
<path d="M1691 3308 c1 -17 2 -19 6 -5 5 21 33 23 33 2 0 -8 5 -15 10 -15 6 0
10 7 10 15 0 8 5 15 10 15 6 0 10 -7 10 -15 0 -8 5 -15 10 -15 6 0 10 9 10 20
0 17 -7 20 -50 20 -46 0 -50 -2 -49 -22z"/>
<path d="M1897 3323 c-11 -10 -8 -43 3 -43 6 0 10 7 10 15 0 7 8 19 18 24 15
9 15 10 -4 11 -11 0 -24 -3 -27 -7z"/>
<path d="M1950 3315 c-16 -20 -4 -35 28 -34 24 0 25 1 7 9 -19 8 -19 9 3 9 25
1 29 16 6 25 -23 9 -30 8 -44 -9z"/>
<path d="M2460 3305 c0 -32 12 -32 27 0 10 22 9 25 -8 25 -14 0 -19 -7 -19
-25z"/>
<path d="M2514 3315 c-8 -21 4 -35 29 -34 17 1 18 2 5 6 -10 2 -18 11 -18 19
0 11 6 13 20 9 11 -4 20 -2 20 4 0 17 -50 13 -56 -4z"/>
<path d="M2837 3323 c-11 -10 -8 -43 3 -43 6 0 10 9 10 21 0 12 5 19 13 16 6
-2 11 -11 9 -21 -4 -24 15 -20 21 5 3 12 10 18 17 14 6 -4 9 -13 6 -21 -3 -8
1 -14 10 -14 10 0 14 8 12 23 -3 19 -10 22 -49 25 -25 1 -49 -1 -52 -5z"/>
<path d="M1518 3311 c10 -6 8 -10 -8 -14 -12 -3 -19 -10 -15 -16 8 -13 52 -15
59 -2 11 17 -6 41 -28 41 -15 0 -17 -3 -8 -9z"/>
<path d="M2118 3312 c11 -7 9 -10 -7 -15 -31 -8 -26 -24 10 -29 27 -4 30 -2
27 21 -2 17 -10 27 -23 29 -15 2 -16 1 -7 -6z"/>
<path d="M2192 3288 c2 -17 11 -24 31 -26 24 -3 27 0 26 25 0 27 -1 27 -9 6
-12 -28 -30 -30 -30 -3 0 11 -5 20 -11 20 -6 0 -9 -10 -7 -22z"/>
<path d="M2270 3285 c0 -14 5 -25 10 -25 6 0 10 9 10 20 0 11 5 20 10 20 6 0
10 -9 10 -20 0 -11 5 -20 10 -20 6 0 10 9 10 20 0 11 5 20 10 20 6 0 10 -7 10
-15 0 -8 5 -15 10 -15 6 0 10 9 10 20 0 17 -7 20 -50 20 -47 0 -50 -2 -50 -25z"/>
<path d="M3040 3283 c1 -25 2 -26 14 -10 16 21 36 22 36 2 0 -8 9 -19 19 -25
29 -15 38 -12 15 6 -19 15 -18 15 3 9 24 -6 40 9 21 21 -6 4 -23 8 -37 9 -14
1 -36 5 -48 9 -20 6 -23 4 -23 -21z"/>
<path d="M1346 3291 c-3 -5 -14 -7 -24 -5 -9 2 -23 0 -31 -5 -15 -10 -8 -41
10 -41 6 0 9 7 6 15 -9 22 12 29 32 11 10 -9 26 -16 37 -15 15 0 16 2 4 7 -24
11 -24 35 0 27 11 -4 20 -2 20 4 0 13 -47 15 -54 2z"/>
<path d="M3172 3270 c-6 -16 -7 -32 -2 -35 10 -6 15 1 24 38 9 37 -9 35 -22
-3z"/>
<path d="M3550 3272 c0 -29 3 -33 22 -30 23 3 39 38 19 38 -6 0 -11 -7 -11
-15 0 -8 -5 -15 -11 -15 -6 0 -9 6 -6 13 3 8 1 20 -4 28 -6 10 -9 4 -9 -19z"/>
<path d="M3710 3270 c0 -16 5 -30 10 -30 6 0 10 14 10 30 0 17 -4 30 -10 30
-5 0 -10 -13 -10 -30z"/>
<path d="M3747 3293 c-11 -10 -8 -53 3 -53 6 0 10 14 10 30 0 31 -2 35 -13 23z"/>
<path d="M1194 3267 c3 -12 6 -25 6 -29 0 -15 61 -8 67 8 7 20 -4 30 -46 38
-31 6 -33 4 -27 -17z m48 -12 c0 -5 -5 -11 -11 -13 -6 -2 -11 4 -11 13 0 9 5
15 11 13 6 -2 11 -8 11 -13z"/>
<path d="M3214 3265 c-6 -24 0 -44 10 -34 11 11 17 59 7 59 -6 0 -13 -11 -17
-25z"/>
<path d="M3623 3283 c-15 -5 -18 -43 -4 -43 5 0 11 11 13 25 3 14 5 25 4 24 0
0 -7 -3 -13 -6z"/>
<path d="M3660 3280 c-17 -11 -5 -40 17 -40 15 0 16 2 3 10 -13 8 -12 10 3 10
9 0 17 4 17 9 0 13 -25 20 -40 11z"/>
<path d="M3333 3267 c5 -15 29 -16 34 -2 2 6 -6 11 -18 12 -12 1 -19 -3 -16
-10z"/>
<path d="M3463 3273 c-15 -5 -18 -43 -3 -43 6 0 10 8 10 17 0 15 2 14 15 -3
14 -19 14 -18 15 4 0 12 5 22 10 22 6 0 10 -7 10 -15 0 -8 4 -15 9 -15 5 0 7
9 4 19 -5 19 -37 25 -70 14z"/>
<path d="M3788 3273 c6 -2 12 -9 12 -14 0 -4 -7 -6 -16 -2 -12 4 -15 2 -12 -8
8 -23 43 -17 46 9 3 17 -1 22 -20 21 -13 0 -17 -3 -10 -6z"/>
<path d="M3850 3250 c0 -15 7 -20 25 -20 19 0 25 5 25 22 0 21 0 21 -15 2 -13
-17 -14 -17 -15 -1 0 24 -20 22 -20 -3z"/>
<path d="M3920 3251 c0 -25 6 -27 13 -6 4 8 2 17 -3 20 -6 4 -10 -3 -10 -14z"/>
<path d="M4016 3247 c-9 -35 -7 -39 21 -35 35 4 39 22 9 41 -23 15 -24 15 -30
-6z m34 -17 c0 -5 -4 -10 -10 -10 -5 0 -10 5 -10 10 0 6 5 10 10 10 6 0 10 -4
10 -10z"/>
<path d="M4656 3251 c-14 -15 -14 -20 -3 -30 17 -13 34 3 34 32 0 22 -10 22
-31 -2z m24 -11 c0 -5 -4 -10 -10 -10 -5 0 -10 5 -10 10 0 6 5 10 10 10 6 0
10 -4 10 -10z"/>
<path d="M349 3254 c-1 -5 0 -18 1 -29 1 -15 -1 -17 -12 -8 -10 8 -16 7 -26
-3 -7 -8 -9 -14 -5 -14 4 0 0 -5 -9 -11 -25 -14 -22 -39 4 -39 21 0 21 0 2 16
-10 8 -14 13 -9 11 13 -6 36 18 27 28 -4 4 0 6 8 5 40 -6 61 19 34 40 -8 7
-15 9 -15 4z"/>
<path d="M1089 3246 c-26 -12 -29 -46 -4 -46 8 0 11 7 8 20 -6 23 15 28 23 5
4 -8 11 -15 16 -15 6 0 8 7 5 15 -9 21 10 28 22 8 11 -21 26 -11 17 12 -6 17
-47 18 -87 1z"/>
<path d="M1710 3256 c0 -9 30 -14 35 -6 4 6 -3 10 -14 10 -12 0 -21 -2 -21 -4z"/>
<path d="M2507 3253 c-15 -14 -6 -33 16 -32 12 0 16 3 10 6 -18 7 -16 21 5 26
14 4 13 5 -4 6 -11 0 -24 -2 -27 -6z"/>
<path d="M3275 3250 c18 -8 17 -9 -8 -9 -39 -1 -30 -26 9 -26 22 0 30 5 32 23
3 18 -1 22 -25 21 -25 0 -26 -1 -8 -9z"/>
<path d="M3388 3254 c-11 -17 15 -46 35 -38 18 7 24 44 7 44 -5 0 -10 -7 -10
-15 0 -21 -18 -19 -22 3 -2 11 -6 13 -10 6z"/>
<path d="M3950 3238 c1 -22 1 -22 15 -4 13 17 15 18 15 3 0 -9 5 -17 11 -17
20 0 4 35 -19 38 -17 3 -22 -1 -22 -20z"/>
<path d="M2206 3241 c-4 -5 -2 -12 3 -15 5 -4 12 -2 15 3 4 5 2 12 -3 15 -5 4
-12 2 -15 -3z"/>
<path d="M2660 3240 c-8 -5 -10 -10 -5 -10 6 0 17 5 25 10 8 5 11 10 5 10 -5
0 -17 -5 -25 -10z"/>
<path d="M2692 3231 c-11 -7 -11 -9 1 -14 9 -3 18 1 21 9 6 16 -2 18 -22 5z"/>
<path d="M4081 3218 c0 -16 2 -18 6 -8 3 8 11 18 17 22 7 5 4 8 -6 8 -12 0
-18 -7 -17 -22z"/>
<path d="M4130 3230 c-17 -11 -5 -40 17 -40 15 0 16 2 3 10 -13 8 -12 10 3 10
9 0 17 4 17 9 0 13 -25 20 -40 11z"/>
<path d="M4187 3234 c-4 -4 -7 -19 -6 -33 l0 -26 10 24 c10 26 8 47 -4 35z"/>
<path d="M4217 3216 c-5 -15 -6 -31 -3 -34 8 -8 18 25 14 45 -3 13 -6 10 -11
-11z"/>
<path d="M810 3201 c0 -17 5 -33 10 -36 6 -4 10 8 10 29 0 20 -4 36 -10 36 -5
0 -10 -13 -10 -29z"/>
<path d="M1030 3210 c0 -23 -18 -27 -26 -5 -8 19 -24 20 -24 1 0 -21 17 -28
49 -21 22 5 28 10 24 26 -7 25 -23 25 -23 -1z"/>
<path d="M3117 3224 c-3 -4 -1 -16 5 -28 7 -11 11 -24 10 -28 -1 -3 5 -12 13
-18 12 -10 15 -9 15 3 0 9 -7 22 -15 30 -8 8 -11 17 -8 21 4 3 1 6 -6 6 -7 0
-9 5 -6 10 7 11 2 13 -8 4z"/>
<path d="M3340 3225 c0 -3 7 -19 15 -35 16 -31 42 -42 31 -14 -3 9 -6 20 -6
24 0 5 -9 14 -20 20 -11 6 -20 8 -20 5z"/>
<path d="M3585 3220 c-3 -5 -1 -10 4 -10 6 0 11 5 11 10 0 6 -2 10 -4 10 -3 0
-8 -4 -11 -10z"/>
<path d="M770 3193 c0 -18 5 -33 10 -33 13 0 13 30 0 50 -7 11 -10 7 -10 -17z"/>
<path d="M874 3211 c3 -5 -1 -11 -9 -15 -23 -9 -18 -26 9 -26 27 0 40 22 23
39 -13 13 -31 15 -23 2z"/>
<path d="M1720 3209 c0 -5 -4 -7 -10 -4 -5 3 -10 1 -10 -4 0 -6 5 -11 10 -11
6 0 10 -8 11 -17 0 -15 2 -15 9 2 12 28 12 45 0 45 -5 0 -10 -5 -10 -11z"/>
<path d="M4686 3211 c-4 -5 3 -7 14 -4 23 6 26 13 6 13 -8 0 -17 -4 -20 -9z"/>
<path d="M2190 3198 c0 -4 4 -8 9 -8 6 0 12 4 15 8 3 5 -1 9 -9 9 -8 0 -15 -4
-15 -9z"/>
<path d="M2503 3203 c9 -2 23 -2 30 0 6 3 -1 5 -18 5 -16 0 -22 -2 -12 -5z"/>
<path d="M4258 3199 c-23 -13 -23 -25 1 -32 12 -3 22 1 25 10 13 33 5 40 -26
22z"/>
<path d="M921 3169 c-15 -20 -20 -34 -13 -41 6 -6 17 1 32 22 30 43 12 61 -19
19z"/>
<path d="M1145 3190 c3 -5 8 -10 11 -10 2 0 4 5 4 10 0 6 -5 10 -11 10 -5 0
-7 -4 -4 -10z"/>
<path d="M3590 3193 c0 -4 7 -16 14 -26 12 -15 14 -15 19 -2 4 9 -2 19 -13 25
-11 6 -20 7 -20 3z"/>
<path d="M4325 3187 c-4 -10 -5 -21 -1 -24 10 -10 18 4 13 24 -4 17 -4 17 -12
0z"/>
<path d="M4712 3187 c-10 -11 -9 -17 3 -27 13 -11 14 -10 9 4 -5 12 -2 15 10
10 9 -3 16 -1 16 6 0 6 -4 9 -9 6 -5 -4 -11 -1 -13 5 -2 7 -8 6 -16 -4z"/>
<path d="M700 3175 c-6 -8 -9 -19 -5 -25 8 -14 42 -13 51 2 5 8 2 9 -10 5 -9
-4 -15 -3 -11 2 3 5 -1 12 -7 15 -7 3 0 2 16 -1 20 -4 27 -3 22 6 -10 16 -41
14 -56 -4z"/>
<path d="M2523 3170 c-10 -14 -10 -20 0 -23 8 -4 6 -6 -3 -6 -22 -1 -22 -91 0
-91 12 -1 12 -3 -2 -14 -19 -14 -25 -32 -8 -21 6 3 10 1 10 -4 0 -6 5 -11 10
-11 6 0 10 19 9 43 -1 23 2 50 6 60 4 10 3 17 -4 17 -7 0 -8 8 -2 23 12 32 -1
52 -16 27z"/>
<path d="M4356 3174 c-8 -21 -8 -24 3 -24 5 0 11 9 14 20 6 24 -8 27 -17 4z"/>
<path d="M4387 3170 c-3 -11 -1 -23 4 -26 5 -3 9 2 9 10 0 9 5 16 10 16 6 0
10 -8 10 -17 1 -16 2 -16 11 1 9 14 8 20 -2 27 -22 14 -36 10 -42 -11z"/>
<path d="M658 3173 c-10 -2 -18 -13 -18 -24 0 -26 13 -24 27 6 6 14 10 24 10
24 -1 -1 -10 -3 -19 -6z"/>
<path d="M1109 3178 c0 -2 -3 -15 -5 -30 -4 -21 -1 -28 12 -28 13 0 14 3 5 14
-9 11 -8 15 4 20 9 3 13 10 10 16 -5 9 -24 14 -26 8z"/>
<path d="M2193 3165 c0 -8 4 -12 9 -9 4 3 8 9 8 15 0 5 -4 9 -8 9 -5 0 -9 -7
-9 -15z"/>
<path d="M2718 3165 c5 -11 12 -27 15 -35 5 -13 6 -13 6 1 1 8 -6 24 -15 35
-15 19 -15 19 -6 -1z"/>
<path d="M4490 3166 c0 -8 -3 -21 -6 -30 -5 -13 1 -16 25 -16 36 0 40 17 11
43 -25 21 -30 21 -30 3z m30 -26 c0 -5 -4 -10 -10 -10 -5 0 -10 5 -10 10 0 6
5 10 10 10 6 0 10 -4 10 -10z"/>
<path d="M4754 3159 c-19 -22 -19 -22 4 -10 12 6 22 16 22 21 0 15 -5 12 -26
-11z"/>
<path d="M557 3163 c-9 -9 -9 -51 1 -57 4 -2 22 2 40 10 38 15 38 40 1 38 -13
-1 -27 3 -30 7 -3 5 -8 6 -12 2z m45 -35 c-6 -6 -16 -7 -22 -3 -9 6 -9 9 1 16
17 10 34 0 21 -13z"/>
<path d="M4453 3150 c-1 -11 2 -20 8 -20 5 0 9 9 9 20 0 11 -4 20 -8 20 -4 0
-8 -9 -9 -20z"/>
<path d="M1650 3156 c0 -2 7 -7 16 -10 8 -3 12 -2 9 4 -6 10 -25 14 -25 6z"/>
<path d="M263 3138 c4 -12 -3 -17 -26 -22 -29 -6 -30 -7 -11 -21 19 -14 19
-14 -1 -15 -24 0 -60 -54 -49 -72 5 -8 2 -9 -9 -5 -10 3 -17 2 -17 -2 0 -5 7
-12 16 -15 11 -4 18 1 21 14 3 11 10 20 15 20 6 0 4 8 -3 17 -12 15 -12 16 5
10 14 -6 17 -4 12 9 -4 10 -1 14 6 12 28 -10 71 63 47 78 -8 5 -10 2 -6 -8z
m-3 -38 c0 -5 -2 -10 -4 -10 -3 0 -8 5 -11 10 -3 6 -1 10 4 10 6 0 11 -4 11
-10z"/>
<path d="M1707 3131 c-4 -17 -3 -21 5 -13 5 5 8 16 6 23 -3 8 -7 3 -11 -10z"/>
<path d="M4550 3128 c0 -19 2 -20 10 -8 13 19 13 30 0 30 -5 0 -10 -10 -10
-22z"/>
<path d="M495 3130 c-3 -5 -17 -10 -30 -10 -28 0 -38 -12 -29 -34 9 -23 26
-20 19 4 -8 25 10 26 24 3 10 -16 11 -16 17 5 6 22 24 31 24 12 0 -5 5 -10 10
-10 16 0 11 27 -6 34 -21 8 -22 8 -29 -4z"/>
<path d="M3154 3125 c-18 -14 -18 -15 4 -21 18 -5 20 -9 10 -15 -10 -7 -9 -9
5 -9 14 0 16 5 11 28 -9 35 -7 34 -30 17z"/>
<path d="M4247 3114 c12 -16 20 -31 19 -34 -3 -14 42 -62 53 -56 6 4 9 12 5
17 -3 5 -11 6 -17 2 -7 -4 -6 1 2 11 8 9 10 16 5 15 -5 -1 -18 -1 -29 0 -17 1
-18 3 -5 11 10 6 11 10 3 10 -7 0 -13 7 -13 15 0 8 -10 19 -22 26 l-21 11 20
-28z"/>
<path d="M4600 3130 c-17 -11 -5 -40 17 -40 15 0 16 2 3 10 -13 8 -12 10 3 10
9 0 17 4 17 9 0 13 -25 20 -40 11z"/>
<path d="M4656 3114 c-6 -24 -2 -43 8 -33 11 10 17 59 8 59 -5 0 -13 -12 -16
-26z"/>
<path d="M1625 3119 c-4 -6 -5 -12 -2 -15 2 -3 7 2 10 11 7 17 1 20 -8 4z"/>
<path d="M3621 3114 c0 -11 3 -14 6 -6 3 7 2 16 -1 19 -3 4 -6 -2 -5 -13z"/>
<path d="M4690 3106 c-12 -33 -12 -36 -1 -36 9 0 22 52 15 59 -2 2 -8 -8 -14
-23z"/>
<path d="M1080 3111 c0 -8 -8 -20 -17 -28 -13 -10 -15 -16 -5 -19 6 -3 10 -10
6 -15 -3 -5 -3 -9 0 -9 14 0 34 57 25 71 -7 12 -9 12 -9 0z"/>
<path d="M2167 3113 c-3 -5 -1 -16 2 -26 6 -17 8 -16 19 7 9 21 9 26 -3 26 -7
0 -16 -3 -18 -7z"/>
<path d="M4796 3108 c3 -5 0 -15 -6 -23 -7 -8 -9 -15 -5 -15 8 0 34 31 35 41
0 3 -7 6 -15 6 -8 0 -12 -4 -9 -9z"/>
<path d="M3710 3102 c0 -6 -7 -9 -14 -6 -13 5 -13 2 -3 -20 l12 -25 7 26 c4
15 5 29 3 32 -3 2 -5 -1 -5 -7z"/>
<path d="M394 3084 c0 -9 -5 -19 -11 -21 -7 -3 -13 2 -13 11 0 9 -4 16 -10 16
-5 0 -10 -4 -10 -9 0 -17 26 -30 48 -24 25 6 24 5 16 27 -8 21 -22 21 -20 0z"/>
<path d="M4716 3084 c-8 -20 -8 -20 20 -28 25 -8 43 22 22 36 -20 12 -35 9
-42 -8z"/>
<path d="M3672 3058 c6 -18 18 -39 27 -47 12 -10 13 -15 4 -18 -10 -3 -10 -10
-2 -24 5 -11 14 -17 20 -14 5 4 6 12 2 18 -4 7 -6 25 -5 42 2 20 0 26 -6 17
-7 -10 -12 -5 -22 18 -17 42 -32 48 -18 8z"/>
<path d="M1607 3051 c-21 -35 -22 -46 -3 -29 8 7 12 15 10 17 -2 2 3 13 13 23
9 10 12 18 7 18 -5 0 -17 -13 -27 -29z"/>
<path d="M1650 3061 c0 -11 -6 -22 -12 -24 -8 -4 -9 -6 -2 -6 7 -1 19 10 28
24 14 22 15 25 1 25 -8 0 -15 -9 -15 -19z"/>
<path d="M4812 3068 c-17 -21 3 -46 25 -32 10 6 18 17 18 25 0 19 -29 23 -43
7z"/>
<path d="M3173 3054 c-3 -9 0 -20 8 -25 22 -14 27 -11 21 16 -5 28 -20 33 -29
9z"/>
<path d="M2154 3045 c3 -8 1 -15 -4 -15 -5 0 -9 -8 -10 -17 -2 -66 -6 -89 -15
-95 -6 -4 -2 -8 9 -8 14 0 17 6 14 25 -3 14 -1 25 3 25 5 0 6 7 2 15 -3 9 1
23 9 33 19 22 19 52 0 52 -8 0 -12 -6 -8 -15z"/>
<path d="M410 3035 c0 -7 6 -18 13 -22 8 -4 17 -17 20 -28 7 -20 7 -20 -8 -1
-8 11 -15 15 -15 8 0 -6 9 -20 21 -31 14 -13 17 -21 9 -26 -9 -6 -9 -10 1 -16
8 -4 14 -14 14 -21 0 -7 8 -14 18 -16 10 -2 17 3 17 12 0 9 -4 16 -9 16 -12 0
-34 57 -26 69 3 6 1 11 -4 11 -6 0 -11 9 -11 20 0 12 -7 20 -17 21 -15 0 -15
2 2 9 19 8 19 9 -2 9 -14 1 -23 -5 -23 -14z"/>
<path d="M1036 3041 c-3 -5 1 -11 9 -14 9 -4 12 -1 8 9 -6 16 -10 17 -17 5z"/>
<path d="M3735 3041 c-6 -11 -5 -12 18 -15 6 -1 11 -8 9 -15 -1 -7 2 -10 7 -7
9 6 26 -11 26 -26 0 -15 15 -20 15 -4 0 10 -6 23 -13 29 -44 40 -55 48 -62 38z"/>
<path d="M300 3030 c0 -5 5 -10 11 -10 5 0 7 5 4 10 -3 6 -8 10 -11 10 -2 0
-4 -4 -4 -10z"/>
<path d="M4710 3020 c-8 -5 -11 -13 -6 -17 5 -4 11 -2 13 5 3 6 9 10 14 6 5
-3 9 0 9 5 0 13 -10 14 -30 1z"/>
<path d="M4845 3020 c-3 -6 1 -17 9 -26 9 -8 16 -20 16 -25 0 -5 7 -9 15 -9 8
0 15 7 15 15 0 8 -4 15 -9 15 -5 0 -13 9 -16 20 -7 22 -20 26 -30 10z"/>
<path d="M1023 3006 c3 -8 2 -17 -4 -20 -5 -2 -4 -3 2 -2 15 3 21 36 7 36 -6
0 -8 -6 -5 -14z"/>
<path d="M1625 3010 c3 -5 8 -10 11 -10 2 0 4 5 4 10 0 6 -5 10 -11 10 -5 0
-7 -4 -4 -10z"/>
<path d="M2720 2995 c0 -14 2 -25 4 -25 2 0 6 11 8 25 3 14 1 25 -3 25 -5 0
-9 -11 -9 -25z"/>
<path d="M2685 2953 c7 -82 7 -83 17 -83 9 0 5 36 -5 46 -11 11 -8 26 3 19 6
-3 10 -1 10 4 0 6 -4 11 -9 11 -6 0 -6 12 -1 30 7 23 5 30 -6 30 -11 0 -13
-12 -9 -57z"/>
<path d="M4643 3003 c-7 -2 -13 -12 -12 -21 0 -10 3 -12 5 -5 3 7 11 10 18 7
7 -3 19 2 26 11 10 13 9 15 -6 14 -11 0 -25 -3 -31 -6z"/>
<path d="M3190 2990 c0 -5 5 -9 12 -7 7 1 12 -4 13 -12 0 -17 25 -28 25 -11 0
14 -25 40 -39 40 -6 0 -11 -4 -11 -10z"/>
<path d="M271 2974 c0 -11 3 -14 6 -6 3 7 2 16 -1 19 -3 4 -6 -2 -5 -13z"/>
<path d="M360 2975 c0 -8 5 -15 10 -15 6 0 10 7 10 15 0 8 -4 15 -10 15 -5 0
-10 -7 -10 -15z"/>
<path d="M2520 2980 c21 -7 22 -8 5 -9 -29 -1 -33 -51 -5 -51 11 0 20 5 20 11
0 6 -7 9 -14 6 -10 -4 -13 -1 -9 9 3 7 11 14 19 14 8 0 14 7 14 15 0 10 -9 15
-27 14 l-28 -1 25 -8z"/>
<path d="M4346 2983 c-11 -11 -6 -22 14 -28 11 -3 19 -9 18 -13 -4 -20 25 -61
43 -62 17 0 -6 48 -31 65 -16 11 -27 22 -24 26 6 10 -11 20 -20 12z m62 -78
c-3 -3 -9 2 -12 12 -6 14 -5 15 5 6 7 -7 10 -15 7 -18z"/>
<path d="M211 2963 c0 -13 2 -14 6 -4 5 11 7 11 14 0 7 -11 9 -11 9 -1 0 7 5
10 10 7 6 -3 10 -1 10 4 0 6 -11 11 -25 11 -17 0 -25 -5 -24 -17z"/>
<path d="M290 2970 c0 -5 5 -10 10 -10 6 0 10 5 10 10 0 6 -4 10 -10 10 -5 0
-10 -4 -10 -10z"/>
<path d="M330 2969 c0 -5 5 -7 10 -4 6 3 10 8 10 11 0 2 -4 4 -10 4 -5 0 -10
-5 -10 -11z"/>
<path d="M396 2971 c-4 -7 -5 -15 -2 -18 9 -9 19 4 14 18 -4 11 -6 11 -12 0z"/>
<path d="M117 2950 c-21 -25 -22 -40 -2 -40 8 0 15 6 15 14 0 8 7 17 16 20 8
3 12 10 9 16 -9 15 -19 12 -38 -10z"/>
<path d="M491 2957 c-1 -16 4 -17 29 -12 20 4 30 3 30 -5 0 -7 7 -10 16 -6 8
3 12 2 9 -4 -3 -6 1 -10 9 -10 9 0 16 4 16 9 0 17 -26 29 -63 27 -20 0 -39 4
-41 9 -3 6 -5 2 -5 -8z"/>
<path d="M990 2949 c0 -18 2 -19 15 -9 15 12 12 30 -6 30 -5 0 -9 -10 -9 -21z"/>
<path d="M1625 2951 c-6 -11 9 -23 19 -14 9 9 7 23 -3 23 -6 0 -12 -4 -16 -9z"/>
<path d="M4561 2953 c3 -19 -2 -27 -10 -15 -6 10 -10 9 -14 -7 -3 -12 0 -24 6
-28 7 -3 9 -3 5 2 -5 5 1 14 12 22 21 15 27 33 10 33 -5 0 -9 -3 -9 -7z"/>
<path d="M969 2945 c-1 -3 -2 -8 -3 -12 -4 -18 -30 -59 -45 -70 -9 -7 -12 -13
-7 -13 5 0 2 -8 -7 -18 -9 -9 -18 -31 -21 -47 -5 -28 -4 -29 9 -11 8 10 12 23
9 27 -3 5 0 9 6 9 6 0 9 4 5 9 -3 5 4 12 15 16 13 4 20 15 20 31 0 13 6 24 13
24 7 0 12 13 12 30 1 26 -3 39 -6 25z"/>
<path d="M2726 2941 c-4 -5 7 -15 23 -22 16 -7 28 -16 26 -19 -1 -3 8 -13 21
-23 17 -12 24 -14 22 -5 -2 7 -15 22 -30 34 -15 11 -25 24 -21 28 4 4 -1 4
-11 0 -14 -5 -17 -4 -12 4 4 7 3 12 -3 12 -5 0 -12 -4 -15 -9z"/>
<path d="M3210 2935 c0 -8 7 -15 15 -15 8 0 15 4 15 9 0 5 -7 11 -15 15 -9 3
-15 0 -15 -9z"/>
<path d="M3820 2946 c0 -2 7 -6 15 -10 8 -3 15 -1 15 4 0 6 -7 10 -15 10 -8 0
-15 -2 -15 -4z"/>
<path d="M614 2928 c-2 -4 0 -9 6 -13 5 -3 10 -3 10 1 0 4 9 -1 19 -10 11 -10
25 -15 30 -11 17 10 13 25 -4 19 -11 -4 -13 -2 -9 9 4 11 -1 15 -21 13 -15 0
-29 -4 -31 -8z"/>
<path d="M1591 2924 c0 -11 3 -14 6 -6 3 7 2 16 -1 19 -3 4 -6 -2 -5 -13z"/>
<path d="M1637 2926 c-10 -8 -14 -17 -9 -20 5 -3 17 3 27 14 21 23 9 26 -18 6z"/>
<path d="M3690 2914 c0 -8 5 -12 10 -9 6 3 10 1 10 -4 0 -6 5 -11 10 -11 6 0
10 9 10 20 0 13 -7 20 -20 20 -11 0 -20 -7 -20 -16z"/>
<path d="M3865 2900 c3 -5 11 -10 16 -10 6 0 7 5 4 10 -3 6 -11 10 -16 10 -6
0 -7 -4 -4 -10z"/>
<path d="M703 2887 c2 -7 10 -13 18 -13 8 -1 20 -2 27 -3 6 0 11 -4 11 -8 -3
-20 2 -26 11 -13 8 13 10 12 10 -3 0 -10 4 -16 10 -12 13 8 2 32 -18 39 -60
22 -73 24 -69 13z"/>
<path d="M1571 2881 c-9 -16 -8 -19 6 -17 20 3 28 21 14 30 -5 4 -15 -2 -20
-13z"/>
<path d="M3230 2885 c0 -9 6 -18 13 -21 8 -3 14 -11 15 -19 1 -8 3 -22 4 -30
1 -8 6 -15 12 -15 7 0 6 -3 -1 -8 -9 -6 -7 -11 7 -20 12 -7 20 -8 20 -2 0 5
-5 10 -11 10 -5 0 -7 5 -3 11 7 13 -25 89 -38 89 -5 0 -6 5 -3 10 3 6 1 10 -4
10 -6 0 -11 -7 -11 -15z"/>
<path d="M4515 2892 c-10 -7 -14 -19 -20 -52 -2 -16 -20 -16 -20 0 0 6 -4 10
-9 9 -5 0 -12 5 -16 11 -5 7 -13 9 -21 5 -10 -7 -8 -10 6 -15 19 -7 32 -50 15
-50 -6 0 -10 -7 -10 -15 0 -22 8 -19 41 14 16 16 29 39 29 50 0 12 4 21 8 21
5 0 9 7 9 15 0 8 -1 15 -1 15 -1 0 -5 -4 -11 -8z"/>
<path d="M2118 2881 c10 -6 8 -10 -10 -15 -13 -3 -19 -9 -13 -13 6 -5 10 -14
10 -20 0 -7 5 -12 10 -10 6 1 9 10 9 20 -1 9 3 17 7 17 5 0 9 7 9 15 0 8 -8
15 -17 15 -14 0 -15 -2 -5 -9z"/>
<path d="M2502 2866 c2 -17 7 -22 20 -18 14 3 17 0 12 -12 -3 -9 -14 -16 -23
-17 -12 0 -12 -2 4 -9 17 -7 17 -9 3 -9 -10 -1 -18 -6 -18 -12 0 -6 7 -9 15
-5 8 3 15 1 15 -4 0 -5 -8 -11 -17 -13 -17 -4 -17 -5 0 -6 21 -1 27 11 31 67
3 36 0 42 -16 42 -11 0 -16 5 -13 10 3 6 1 10 -4 10 -6 0 -10 -11 -9 -24z"/>
<path d="M3675 2880 c-3 -4 9 -10 25 -12 17 -3 30 -1 30 3 0 10 -50 18 -55 9z"/>
<path d="M470 2855 c0 -9 5 -15 11 -13 6 2 11 8 11 13 0 5 -5 11 -11 13 -6 2
-11 -4 -11 -13z"/>
<path d="M2696 2845 c4 -8 8 -15 10 -15 2 0 4 7 4 15 0 8 -4 15 -10 15 -5 0
-7 -7 -4 -15z"/>
<path d="M4011 2827 c0 -10 -5 -15 -11 -12 -5 3 -10 2 -10 -3 0 -12 29 -24 41
-16 5 3 9 11 9 17 0 8 -4 7 -9 -2 -7 -11 -10 -9 -14 10 -3 15 -5 18 -6 6z"/>
<path d="M4112 2820 c0 -14 2 -19 5 -12 2 6 2 18 0 25 -3 6 -5 1 -5 -13z"/>
<path d="M4132 2820 c0 -14 2 -19 5 -12 2 6 2 18 0 25 -3 6 -5 1 -5 -13z"/>
<path d="M4303 2820 c2 -19 7 -24 22 -22 30 5 43 22 17 22 -12 0 -22 -6 -23
-12 -1 -7 -5 -2 -10 12 l-8 25 2 -25z"/>
<path d="M800 2819 c0 -5 4 -8 9 -5 5 3 12 -1 15 -10 3 -8 11 -12 17 -8 9 5 6
11 -6 21 -23 16 -35 17 -35 2z"/>
<path d="M4051 2814 c0 -11 3 -14 6 -6 3 7 2 16 -1 19 -3 4 -6 -2 -5 -13z"/>
<path d="M4087 2823 c-4 -3 -7 -11 -7 -17 0 -6 5 -5 12 2 6 6 9 14 7 17 -3 3
-9 2 -12 -2z"/>
<path d="M4157 2823 c-12 -11 -8 -23 8 -23 8 0 15 7 15 15 0 16 -12 20 -23 8z"/>
<path d="M4201 2818 c-1 -10 6 -18 14 -18 8 0 15 8 15 18 0 13 -2 14 -9 3 -7
-11 -9 -11 -14 0 -4 10 -6 9 -6 -3z"/>
<path d="M4241 2813 c0 -13 2 -14 6 -4 5 11 7 11 14 0 7 -12 9 -11 9 1 0 13 1
13 10 0 8 -13 10 -12 10 3 0 12 -8 17 -25 17 -17 0 -25 -5 -24 -17z"/>
<path d="M1302 2798 c2 -13 9 -23 17 -23 23 0 24 23 1 35 -19 10 -21 9 -18
-12z m28 -8 c0 -5 -2 -10 -4 -10 -3 0 -8 5 -11 10 -3 6 -1 10 4 10 6 0 11 -4
11 -10z"/>
<path d="M1441 2798 c-1 -23 3 -28 24 -28 16 0 25 6 25 15 0 18 -30 20 -31 3
-1 -7 -5 -2 -9 12 l-8 25 -1 -27z"/>
<path d="M2688 2813 c6 -2 18 -2 25 0 6 3 1 5 -13 5 -14 0 -19 -2 -12 -5z"/>
<path d="M3812 2795 c0 -16 2 -22 5 -12 2 9 2 23 0 30 -3 6 -5 -1 -5 -18z"/>
<path d="M3832 2800 c0 -14 2 -19 5 -12 2 6 2 18 0 25 -3 6 -5 1 -5 -13z"/>
<path d="M3901 2808 c-1 -10 6 -18 14 -18 8 0 15 8 15 18 0 13 -2 14 -9 3 -7
-11 -9 -11 -14 0 -4 10 -6 9 -6 -3z"/>
<path d="M3940 2803 c0 -15 2 -16 10 -3 9 13 11 13 20 0 8 -13 10 -12 10 3 0
10 -8 17 -20 17 -12 0 -20 -7 -20 -17z"/>
<path d="M1100 2800 c0 -5 -3 -9 -7 -9 -22 4 -32 -3 -27 -16 4 -8 10 -15 16
-15 5 0 6 5 3 10 -3 6 1 10 9 10 9 0 16 7 16 15 0 8 -2 15 -5 15 -3 0 -5 -4
-5 -10z"/>
<path d="M1245 2799 c-4 -6 -4 -13 -1 -16 3 -4 6 0 7 8 0 8 4 6 9 -6 l9 -20 0
20 c1 17 3 17 11 5 8 -13 10 -12 10 3 0 19 -34 24 -45 6z"/>
<path d="M3850 2795 c0 -8 7 -15 15 -15 8 0 15 7 15 15 0 8 -7 15 -15 15 -8 0
-15 -7 -15 -15z"/>
<path d="M4370 2799 c0 -5 5 -7 11 -3 6 3 15 0 20 -7 7 -11 9 -10 9 4 0 10 -8
17 -20 17 -11 0 -20 -5 -20 -11z"/>
<path d="M4421 2794 c0 -11 3 -14 6 -6 3 7 2 16 -1 19 -3 4 -6 -2 -5 -13z"/>
<path d="M990 2785 c0 -9 -4 -14 -9 -11 -5 4 -20 1 -33 -4 -22 -10 -22 -10 5
-5 15 3 27 1 27 -3 0 -14 43 -9 47 5 2 6 -5 17 -16 23 -17 9 -21 8 -21 -5z"/>
<path d="M1150 2785 c-10 -12 -10 -15 4 -15 9 0 16 7 16 15 0 8 -2 15 -4 15
-2 0 -9 -7 -16 -15z"/>
<path d="M1220 2789 c0 -5 -4 -7 -10 -4 -5 3 -10 1 -10 -4 0 -6 7 -11 15 -11
8 0 15 7 15 15 0 8 -2 15 -5 15 -3 0 -5 -5 -5 -11z"/>
<path d="M1372 2788 c2 -6 10 -14 18 -16 7 -3 10 0 6 6 -3 6 0 13 6 15 7 3 3
6 -10 6 -14 1 -22 -4 -20 -11z"/>
<path d="M1511 2783 c-1 -24 24 -32 32 -10 4 8 6 7 6 -3 1 -13 2 -13 11 0 9
13 11 13 20 0 5 -8 10 -10 10 -5 0 6 5 3 10 -5 8 -13 10 -12 10 3 0 9 -6 18
-12 18 -7 1 -23 3 -36 4 -12 1 -25 -2 -29 -8 -4 -6 -10 -3 -14 9 -7 17 -8 17
-8 -3z"/>
<path d="M2094 2783 c-13 -31 -16 -82 -4 -100 9 -15 10 -11 6 20 -2 20 1 37 6
37 5 0 8 6 5 13 -2 6 0 20 5 30 5 10 5 17 -1 17 -5 0 -12 -8 -17 -17z"/>
<path d="M3700 2783 c0 -6 -9 -9 -20 -6 -11 3 -26 0 -33 -6 -8 -6 -18 -7 -22
-3 -5 4 -5 1 -1 -5 4 -7 3 -13 -3 -13 -5 0 -12 6 -14 13 -3 7 -6 5 -6 -5 -1
-22 37 -24 45 -3 7 18 40 20 47 3 4 -10 6 -10 6 0 1 7 6 10 11 7 14 -9 50 4
50 18 0 7 -13 12 -30 12 -16 0 -30 -5 -30 -12z"/>
<path d="M3772 2788 c6 -18 25 -21 25 -3 0 8 -7 15 -14 15 -8 0 -13 -5 -11
-12z"/>
<path d="M1041 2774 c0 -11 3 -14 6 -6 3 7 2 16 -1 19 -3 4 -6 -2 -5 -13z"/>
<path d="M1620 2768 c0 -12 3 -17 8 -12 4 5 11 12 15 15 5 3 2 9 -7 12 -12 5
-16 0 -16 -15z"/>
<path d="M4480 2783 c0 -5 9 -19 20 -33 16 -20 22 -22 29 -11 7 10 3 20 -14
33 -25 19 -35 22 -35 11z"/>
<path d="M840 2769 c0 -5 5 -7 10 -4 6 3 10 8 10 11 0 2 -4 4 -10 4 -5 0 -10
-5 -10 -11z"/>
<path d="M1690 2754 c0 -7 5 -16 10 -19 6 -3 10 0 10 7 0 9 3 9 10 -2 7 -11
10 -12 10 -2 0 10 4 10 16 -2 20 -20 44 -21 44 0 0 11 -6 14 -20 9 -14 -4 -20
-2 -20 8 0 9 -11 14 -30 14 -18 0 -30 -6 -30 -13z"/>
<path d="M2646 2754 c-8 -21 -8 -24 3 -24 12 0 22 28 12 35 -5 3 -12 -2 -15
-11z"/>
<path d="M2742 2750 c0 -14 2 -19 5 -12 2 6 2 18 0 25 -3 6 -5 1 -5 -13z"/>
<path d="M915 2750 c6 -10 4 -12 -9 -7 -10 4 -15 3 -11 -3 8 -13 35 -13 35 -1
0 6 -5 13 -12 17 -7 5 -8 3 -3 -6z"/>
<path d="M2600 2751 c0 -10 26 -9 36 2 4 4 -2 7 -14 7 -12 0 -22 -4 -22 -9z"/>
<path d="M2675 2749 c-4 -6 -5 -13 -2 -16 7 -7 27 6 27 18 0 12 -17 12 -25 -2z"/>
<path d="M2710 2744 c0 -8 5 -12 10 -9 6 3 10 10 10 16 0 5 -4 9 -10 9 -5 0
-10 -7 -10 -16z"/>
<path d="M2773 2753 c-20 -7 -15 -23 7 -23 11 0 20 4 20 9 0 13 -12 19 -27 14z"/>
<path d="M2834 2745 c-17 -13 -17 -14 -2 -15 9 0 20 5 23 10 4 6 11 7 17 4 7
-4 8 -2 4 4 -9 16 -18 15 -42 -3z"/>
<path d="M2897 2748 c-3 -9 -3 -19 0 -22 12 -12 41 -6 47 9 3 9 0 15 -9 15 -8
0 -15 -6 -16 -12 0 -7 -4 -4 -8 6 -6 17 -8 17 -14 4z"/>
<path d="M2990 2750 c0 -5 -7 -7 -15 -4 -9 4 -15 0 -15 -8 0 -7 9 -14 20 -14
13 0 20 7 20 18 0 10 -2 18 -5 18 -3 0 -5 -4 -5 -10z"/>
<path d="M3523 2752 c-8 -5 -9 -13 -3 -22 9 -13 10 -13 10 0 0 13 1 13 10 0 8
-13 10 -13 10 2 0 21 -12 29 -27 20z"/>
<path d="M3560 2740 c0 -11 5 -20 10 -20 6 0 10 9 10 20 0 11 -4 20 -10 20 -5
0 -10 -9 -10 -20z"/>
<path d="M837 2729 c-10 -11 -15 -24 -12 -29 10 -16 32 -11 39 8 3 9 9 23 12
30 9 19 -19 13 -39 -9z"/>
<path d="M2380 2738 c0 -4 -11 -8 -25 -8 -17 0 -25 -6 -25 -17 0 -15 -2 -16
-10 -3 -6 9 -10 10 -10 3 0 -20 17 -24 33 -8 9 8 23 12 32 9 10 -4 21 -1 26 7
7 12 9 12 9 0 0 -10 3 -11 13 -2 8 6 17 8 20 4 4 -3 7 -2 7 4 0 6 -16 13 -35
15 -19 2 -35 0 -35 -4z"/>
<path d="M2473 2743 c-17 -6 -16 -20 1 -26 11 -4 13 -1 9 11 -6 14 -5 14 8 2
8 -7 15 -23 15 -33 -1 -25 22 -34 30 -12 4 9 -1 24 -11 35 -10 11 -13 20 -7
20 6 0 12 -5 14 -12 3 -7 7 -6 11 5 5 14 1 17 -26 16 -18 0 -38 -3 -44 -6z"/>
<path d="M2564 2738 c4 -20 26 -21 26 -1 0 14 -2 15 -9 4 -6 -9 -10 -10 -14
-2 -4 8 -5 8 -3 -1z"/>
<path d="M3294 2735 c16 -12 17 -17 6 -30 -7 -8 -10 -21 -7 -30 4 -8 -1 -18
-10 -23 -10 -6 -12 -12 -5 -16 11 -7 38 32 34 48 -2 5 2 12 7 16 13 7 -15 50
-32 50 -7 0 -3 -7 7 -15z"/>
<path d="M1826 2724 c-5 -12 0 -14 24 -11 17 3 31 0 34 -6 2 -7 5 -5 5 4 1 9
-9 19 -21 23 -33 8 -35 8 -42 -10z"/>
<path d="M3027 2733 c-12 -11 -8 -23 8 -23 8 0 15 7 15 15 0 16 -12 20 -23 8z"/>
<path d="M1906 2723 c-12 -13 -5 -31 14 -36 11 -3 20 -1 20 4 0 5 5 9 10 9 6
0 10 -7 10 -16 0 -10 6 -14 14 -11 8 3 17 2 20 -4 2 -5 3 -4 2 3 -3 15 -82 59
-90 51z"/>
<path d="M3070 2717 c0 -13 6 -16 25 -13 15 3 25 0 25 -7 0 -8 3 -7 9 2 7 11
11 10 20 -5 6 -11 11 -13 11 -6 0 6 5 12 11 12 5 0 8 -4 4 -9 -3 -5 -1 -12 4
-15 5 -3 11 0 14 7 3 8 -4 19 -14 25 -14 9 -19 9 -19 1 0 -8 -4 -8 -12 -2 -21
16 -58 22 -58 10 0 -7 -5 -5 -10 3 -8 13 -10 12 -10 -3z"/>
<path d="M3490 2715 c0 -8 5 -15 10 -15 6 0 10 7 10 15 0 8 -4 15 -10 15 -5 0
-10 -7 -10 -15z"/>
<path d="M2243 2705 c-18 -20 -17 -21 15 -19 40 2 42 3 42 16 0 9 -3 9 -12 0
-17 -17 -31 -15 -24 3 7 19 -5 19 -21 0z"/>
<path d="M3426 2698 c4 -13 1 -16 -10 -12 -20 8 -56 -13 -56 -34 0 -15 -2 -15
-10 -2 -6 9 -10 10 -10 3 0 -6 3 -14 8 -17 10 -6 43 19 35 27 -6 7 -5 8 32 12
39 4 64 16 59 28 -2 7 -15 12 -29 12 -19 0 -23 -4 -19 -17z"/>
<path d="M2177 2688 c2 -5 -3 -8 -11 -8 -9 0 -16 -8 -16 -17 0 -15 2 -16 10
-3 6 10 10 11 10 3 0 -10 6 -10 23 -2 30 14 31 34 1 34 -12 0 -20 -3 -17 -7z"/>
<path d="M2015 2680 c-7 -12 12 -40 26 -40 5 0 9 8 9 18 0 13 -2 14 -9 3 -6
-9 -11 -10 -15 -2 -4 6 -4 16 -1 21 3 6 4 10 1 10 -3 0 -8 -5 -11 -10z"/>
<path d="M3210 2674 c0 -8 5 -12 11 -8 6 3 15 0 20 -7 7 -11 9 -11 9 -1 0 7 5
10 10 7 6 -3 10 -2 10 4 0 5 -4 13 -10 16 -5 3 -10 1 -10 -6 0 -10 -3 -10 -12
-1 -17 17 -28 15 -28 -4z"/>
<path d="M2120 2653 c0 -15 -2 -16 -10 -3 -5 8 -10 10 -10 4 0 -16 10 -23 26
-17 16 6 19 33 4 33 -5 0 -10 -8 -10 -17z"/>
<path d="M2507 2653 c-13 -12 -7 -44 10 -50 15 -6 15 -7 -3 -14 -17 -7 -17 -8
-1 -8 17 -1 25 -21 8 -21 -5 0 -7 -10 -3 -22 3 -12 1 -19 -5 -15 -5 3 -10 -13
-12 -39 -2 -42 0 -45 20 -42 12 2 24 10 27 18 4 12 2 13 -9 3 -18 -18 -30 -16
-23 2 4 8 15 15 25 15 12 0 19 7 19 20 0 11 -4 20 -10 20 -15 0 -12 57 3 63 9
4 9 8 -2 15 -8 6 -12 20 -9 36 4 20 1 26 -12 26 -9 0 -20 -3 -23 -7z m23 -13
c0 -5 -4 -10 -10 -10 -5 0 -10 5 -10 10 0 6 5 10 10 10 6 0 10 -4 10 -10z"/>
<path d="M2066 2624 c-7 -26 -1 -43 10 -32 9 9 12 58 4 58 -4 0 -11 -12 -14
-26z"/>
<path d="M3314 2618 c3 -33 19 -47 31 -28 3 5 -1 17 -9 26 -9 9 -14 20 -11 25
4 5 1 9 -4 9 -6 0 -9 -14 -7 -32z"/>
<path d="M2500 2385 c0 -20 5 -25 25 -25 31 0 33 17 3 23 -23 4 -23 4 2 15
l25 11 -27 0 c-23 1 -28 -3 -28 -24z"/>
<path d="M2513 2343 c9 -2 17 -8 17 -13 0 -5 -8 -11 -17 -13 -17 -4 -17 -5 0
-6 21 -1 23 -21 2 -21 -8 0 -15 -4 -15 -10 0 -11 11 -13 34 -4 10 4 16 18 16
40 0 31 -3 34 -27 33 -17 -1 -21 -3 -10 -6z"/>
<path d="M2500 2234 c0 -20 4 -25 21 -22 12 2 26 13 30 26 7 20 5 22 -21 22
-26 0 -30 -4 -30 -26z m35 6 c3 -5 -1 -10 -9 -10 -9 0 -16 5 -16 10 0 6 4 10
9 10 6 0 13 -4 16 -10z"/>
<path d="M2516 2185 c25 -19 34 -19 34 0 0 10 -10 15 -27 15 -26 0 -26 -1 -7
-15z"/>
<path d="M2500 2149 c0 -5 5 -7 10 -4 6 3 10 -3 10 -14 0 -12 -4 -21 -10 -21
-5 0 -10 -4 -10 -10 0 -5 16 -10 35 -10 19 0 35 5 35 10 0 6 -10 10 -21 10
-18 0 -19 3 -9 15 6 8 9 19 5 25 -8 13 -45 13 -45 -1z"/>
<path d="M2500 2060 c0 -11 5 -20 10 -20 6 0 10 5 10 10 0 6 11 10 25 10 14 0
25 5 25 10 0 6 -16 10 -35 10 -28 0 -35 -4 -35 -20z"/>
<path d="M2540 2042 c0 -7 -9 -12 -20 -12 -11 0 -20 -4 -20 -10 0 -16 40 -11
47 5 3 9 3 19 -1 22 -3 4 -6 1 -6 -5z"/>
<path d="M2507 1973 c-4 -3 -7 -15 -7 -25 0 -12 7 -18 23 -17 16 1 18 2 5 6
-22 5 -24 23 -3 23 8 0 15 5 15 10 0 11 -23 14 -33 3z"/>
<path d="M2500 1911 c0 -6 8 -11 18 -11 16 -1 16 -2 -1 -14 -18 -14 -18 -14 0
-19 16 -4 16 -5 1 -6 -10 0 -18 -6 -18 -12 0 -6 10 -9 23 -7 18 2 22 9 22 38
0 29 -4 36 -22 38 -13 2 -23 -1 -23 -7z"/>
<path d="M2500 1820 c0 -5 7 -10 15 -10 8 0 15 -5 15 -11 0 -6 -6 -9 -14 -6
-10 4 -14 0 -13 -14 1 -10 7 -19 14 -19 7 0 13 -4 13 -10 0 -5 -7 -10 -15 -10
-8 0 -15 -4 -15 -10 0 -5 5 -10 10 -10 14 0 12 -28 -2 -33 -24 -8 0 -18 34
-15 32 4 32 4 9 14 -14 6 -20 13 -14 17 12 7 5 67 -8 67 -5 0 0 9 11 20 28 28
25 40 -10 40 -16 0 -30 -4 -30 -10z"/>
<path d="M2498 1643 c-3 -10 -3 -24 -1 -30 6 -18 40 -16 47 3 4 9 2 13 -5 8
-6 -4 -15 0 -20 7 -6 11 0 16 24 20 l32 6 -36 2 c-27 1 -38 -4 -41 -16z"/>
<path d="M2497 1566 c-6 -16 1 -26 17 -26 6 0 4 5 -4 10 -13 9 -13 10 0 11 8
1 18 1 23 0 4 0 7 4 7 9 0 15 -37 12 -43 -4z"/>
<path d="M2539 1541 c11 -7 7 -10 -15 -14 l-29 -4 33 -2 c22 -1 32 3 32 14 0
8 -8 15 -17 15 -15 0 -15 -2 -4 -9z"/>
<path d="M2500 1500 c0 -5 6 -10 13 -10 8 0 7 -4 -3 -10 -12 -8 -12 -10 5 -11
l20 0 -20 -9 c-19 -8 -19 -9 3 -9 18 -1 22 4 22 29 0 23 -4 30 -20 30 -11 0
-20 -4 -20 -10z"/>
<path d="M2500 1420 c0 -24 35 -28 44 -4 9 23 8 24 -19 24 -18 0 -25 -5 -25
-20z"/>
<path d="M2516 1375 c17 -13 17 -14 2 -15 -10 0 -18 -4 -18 -10 0 -5 6 -9 13
-7 6 1 11 -4 10 -10 -2 -7 1 -13 6 -13 5 0 9 16 9 35 0 29 -4 35 -21 35 -20 0
-20 0 -1 -15z"/>
<path d="M2439 1321 c-7 -16 -17 -27 -21 -25 -4 3 -8 0 -8 -5 0 -6 4 -11 8
-11 4 0 8 -10 9 -22 2 -23 19 -38 43 -37 10 0 9 3 -4 8 -28 11 -32 71 -5 78
11 3 19 12 17 21 -5 27 -26 24 -39 -7z"/>
<path d="M2513 1303 c9 -2 25 -2 35 0 9 3 1 5 -18 5 -19 0 -27 -2 -17 -5z"/>
<path d="M2500 1275 c0 -8 5 -15 11 -15 5 0 8 4 4 9 -3 5 7 12 22 14 26 4 26
4 -4 6 -23 1 -33 -3 -33 -14z"/>
<path d="M2460 1249 c0 -5 5 -7 10 -4 6 3 10 8 10 11 0 2 -4 4 -10 4 -5 0 -10
-5 -10 -11z"/>
<path d="M2518 1252 c-10 -2 -18 -8 -18 -13 0 -13 27 -11 35 2 9 13 4 16 -17
11z"/>
<path d="M2487 1183 c-4 -3 -7 -17 -7 -30 0 -20 5 -23 35 -23 19 0 35 5 35 10
0 6 -11 10 -25 10 -14 0 -25 5 -25 10 0 6 9 10 19 10 11 0 23 5 26 10 7 11
-47 14 -58 3z"/>
<path d="M2485 1100 c3 -5 15 -10 26 -10 11 0 17 -4 14 -10 -3 -5 -15 -10 -26
-10 -10 0 -19 -4 -19 -10 0 -5 11 -10 25 -10 14 0 25 -4 25 -10 0 -5 -11 -10
-25 -10 -14 0 -25 -5 -25 -11 0 -6 14 -9 33 -7 31 3 32 5 35 51 l2 47 -35 0
c-22 0 -34 -4 -30 -10z"/>
<path d="M2480 972 c0 -22 6 -32 20 -37 23 -7 50 10 50 31 0 8 5 14 12 14 27
0 -4 13 -42 17 -39 5 -40 4 -40 -25z m48 -10 c2 -7 -3 -12 -12 -12 -9 0 -16 7
-16 16 0 17 22 14 28 -4z"/>
<path d="M2813 950 c-25 -10 -29 -26 -12 -50 8 -12 9 -10 4 8 -7 24 9 31 19 7
6 -17 15 -19 34 -6 12 7 12 12 1 30 -15 23 -15 23 -46 11z m32 -20 c3 -5 1
-10 -4 -10 -6 0 -11 5 -11 10 0 6 2 10 4 10 3 0 8 -4 11 -10z"/>
<path d="M2480 910 c0 -5 9 -10 19 -10 11 0 23 -4 26 -10 11 -17 24 -11 22 10
-1 16 -8 20 -34 20 -18 0 -33 -4 -33 -10z"/>
<path d="M2831 886 c-63 -16 -67 -37 -4 -24 26 6 52 14 56 18 16 14 -8 17 -52
6z"/>
<path d="M2487 863 c-11 -11 -8 -43 4 -43 6 0 9 7 5 15 -3 8 -1 15 4 15 6 0
10 -7 10 -15 0 -16 25 -21 34 -6 17 27 -35 57 -57 34z"/>
<path d="M2797 843 c-9 -2 -15 -8 -12 -13 6 -10 86 -1 100 11 9 9 -55 11 -88
2z"/>
<path d="M2833 812 c-8 -5 -12 -27 -10 -57 2 -43 5 -50 25 -53 27 -4 29 14 2
21 -25 7 -26 27 -1 27 26 0 45 26 35 47 -7 16 -8 15 -11 -4 -6 -31 -21 -29
-25 2 -2 16 -7 22 -15 17z"/>
<path d="M2495 800 c-15 -6 -8 -9 28 -9 26 -1 47 4 47 9 0 12 -47 12 -75 0z"/>
<path d="M2510 771 c-19 -5 -26 -14 -28 -38 -3 -27 0 -33 16 -33 31 0 52 11
52 26 0 16 -17 19 -22 4 -2 -6 -9 -1 -16 10 -11 19 -10 20 24 20 21 0 33 4 29
10 -7 11 -16 11 -55 1z"/>
<path d="M2804 675 c-4 -8 -12 -15 -20 -15 -23 0 -16 -17 10 -24 13 -3 31 -9
39 -12 22 -8 43 32 26 52 -15 18 -48 18 -55 -1z m37 -18 c-1 -12 -15 -9 -19 4
-3 6 1 10 8 8 6 -3 11 -8 11 -12z"/>
<path d="M2495 656 c-16 -12 -17 -16 -6 -30 7 -9 18 -16 23 -16 6 0 4 8 -3 17
-12 15 -12 16 4 10 10 -4 17 -2 17 6 0 8 4 7 10 -3 11 -18 23 -8 14 14 -8 20
-34 21 -59 2z"/>
<path d="M2530 607 c-28 -18 -31 -22 -16 -25 10 -2 30 8 45 22 31 32 18 33
-29 3z"/>
<path d="M2758 587 c-14 -19 -33 -34 -42 -35 -9 -1 -23 -3 -31 -4 -17 -2 -22
-58 -5 -58 6 0 10 9 10 20 0 11 5 20 11 20 6 0 13 -9 16 -20 3 -11 12 -20 19
-20 17 0 17 5 3 32 -16 29 -3 35 19 8 11 -14 21 -19 25 -13 4 6 0 16 -8 23 -8
7 -15 16 -15 21 0 14 17 11 34 -6 10 -11 17 -12 22 -4 4 7 -1 16 -10 21 -25
14 -19 29 9 22 27 -7 35 10 9 20 -28 11 -39 6 -66 -27z"/>
<path d="M2545 575 c-16 -13 -26 -27 -23 -31 7 -7 67 36 67 49 1 13 -13 7 -44
-18z"/>
<path d="M2565 549 c-4 -11 -5 -21 -3 -23 26 -16 78 -39 82 -36 12 12 17 60 7
60 -6 0 -11 -6 -11 -14 0 -8 -5 -18 -11 -22 -9 -5 -10 1 -5 20 7 30 -1 34 -20
9 -7 -10 -16 -15 -20 -11 -4 4 -1 14 6 23 10 12 10 15 -3 15 -9 0 -19 -9 -22
-21z"/>
</g>
</svg>
